<svg xmlns="http://www.w3.org/2000/svg" viewBox="0 0 256 256" role="img">
  <defs>
    <!-- Deep background -->
    <radialGradient id="bg" cx="50%" cy="45%" r="70%">
      <stop offset="0%" stop-color="#11162C"/>
      <stop offset="60%" stop-color="#070A14"/>
      <stop offset="100%" stop-color="#000000"/>
    </radialGradient>

    <!-- Aggressive plasma -->
    <linearGradient id="plasma" x1="0" y1="0" x2="0" y2="1">
      <stop offset="0%" stop-color="#B9FBFF"/>
      <stop offset="30%" stop-color="#00F0FF"/>
      <stop offset="65%" stop-color="#0077FF"/>
      <stop offset="100%" stop-color="#001A66"/>
    </linearGradient>

    <!-- Sharp steel -->
    <linearGradient id="steel" x1="0" y1="0" x2="1" y2="1">
      <stop offset="0%" stop-color="#FFFFFF"/>
      <stop offset="30%" stop-color="#8AC6FF"/>
      <stop offset="60%" stop-color="#2F7BFF"/>
      <stop offset="100%" stop-color="#001F55"/>
    </linearGradient>

    <filter id="plasmaGlow" x="-50%" y="-50%" width="200%" height="200%">
      <feGaussianBlur stdDeviation="6" result="b"/>
      <feColorMatrix in="b" type="matrix"
        values="
          0 0 0 0 0
          0 0 0 0 0.6
          0 0 0 0 1
          0 0 0 0.9 0"/>
      <feMerge>
        <feMergeNode/>
        <feMergeNode in="SourceGraphic"/>
      </feMerge>
    </filter>

    <filter id="depth">
      <feDropShadow dx="0" dy="8" stdDeviation="8" flood-color="#000" flood-opacity="0.8"/>
    </filter>

    <clipPath id="round">
      <rect x="16" y="16" width="224" height="224" rx="48"/>
    </clipPath>
  </defs>

  <g clip-path="url(#round)">
    <!-- Background -->
    <rect x="16" y="16" width="224" height="224" rx="48" fill="url(#bg)"/>

    <!-- Plasma fire -->
    <path fill="url(#plasma)" filter="url(#plasmaGlow)" d="
      M128 34
      C112 60 126 74 110 94
      C92 116 64 120 64 154
      C64 182 92 202 112 210
      C96 194 100 178 110 166
      C120 154 134 160 138 148
      C142 136 128 122 140 110
      C152 122 138 136 142 148
      C146 160 160 154 170 166
      C180 178 184 194 168 210
      C188 202 216 182 216 154
      C216 120 188 116 170 94
      C154 74 168 60 152 34
      C144 48 136 56 128 64
      C120 56 112 48 128 34 Z"/>

    <!-- Aggressive Crown -->
    <g filter="url(#depth)">
      <path d="
        M72 108
        L92 150
        L128 120
        L164 150
        L184 108
        L184 162
        C184 178 170 192 154 192
        H102
        C86 192 72 178 72 162 Z"
        fill="#050812"/>

      <path d="
        M72 108
        L92 150
        L128 120
        L164 150
        L184 108"
        fill="none"
        stroke="url(#steel)"
        stroke-width="6"
        stroke-linejoin="round"
        stroke-linecap="round"/>

      <!-- Sharp spikes -->
      <polygon points="92,150 100,134 108,150" fill="url(#plasma)"/>
      <polygon points="128,120 136,100 144,120" fill="url(#plasma)"/>
      <polygon points="164,150 172,134 180,150" fill="url(#plasma)"/>
    </g>

    <!-- Subtle BC mark -->
    <text x="128" y="214"
      text-anchor="middle"
      font-family="system-ui, -apple-system, Segoe UI, Roboto"
      font-size="44"
      font-weight="900"
      fill="url(#steel)"
      opacity="0.85"
      stroke="#001133"
      stroke-width="2">
      BC
    </text>

    <!-- Edge highlight -->
    <rect x="16" y="16" width="224" height="224" rx="48"
      fill="none"
      stroke="#FFFFFF"
      stroke-opacity="0.08"
      stroke-width="2"/>
  </g>
</svg>
