<svg xmlns="http://www.w3.org/2000/svg" width="256" height="256" viewBox="0 0 256 256" fill="none">
  <defs>
    <radialGradient id="bg" cx="50%" cy="38%" r="80%">
      <stop offset="0" stop-color="#0FE3FF" stop-opacity="0.18"/>
      <stop offset="0.55" stop-color="#0A7BFF" stop-opacity="0.12"/>
      <stop offset="1" stop-color="#000000" stop-opacity="0"/>
    </radialGradient>

    <linearGradient id="flame" x1="72" y1="24" x2="184" y2="238" gradientUnits="userSpaceOnUse">
      <stop offset="0" stop-color="#B9FFFF"/>
      <stop offset="0.28" stop-color="#34F0FF"/>
      <stop offset="0.62" stop-color="#0FA8FF"/>
      <stop offset="1" stop-color="#0032B8"/>
    </linearGradient>

    <linearGradient id="ice" x1="86" y1="74" x2="182" y2="202" gradientUnits="userSpaceOnUse">
      <stop offset="0" stop-color="#F6FBFF"/>
      <stop offset="0.22" stop-color="#D8E6F2"/>
      <stop offset="0.5" stop-color="#97A9BA"/>
      <stop offset="0.78" stop-color="#EEF6FF"/>
      <stop offset="1" stop-color="#7F93A7"/>
    </linearGradient>

    <linearGradient id="gold" x1="54" y1="74" x2="210" y2="214" gradientUnits="userSpaceOnUse">
      <stop offset="0" stop-color="#FFF1B8"/>
      <stop offset="0.28" stop-color="#FFC44D"/>
      <stop offset="0.55" stop-color="#F5A623"/>
      <stop offset="1" stop-color="#B96B00"/>
    </linearGradient>

    <filter id="shadow" x="-30%" y="-30%" width="160%" height="160%">
      <feDropShadow dx="0" dy="10" stdDeviation="10" flood-color="#000" flood-opacity="0.55"/>
    </filter>

    <filter id="glow" x="-40%" y="-40%" width="180%" height="180%">
      <feGaussianBlur stdDeviation="6" result="b"/>
      <feColorMatrix in="b" type="matrix"
        values="1 0 0 0 0
                0 1 0 0 0
                0 0 1 0 0
                0 0 0 0.85 0" result="c"/>
      <feMerge>
        <feMergeNode in="c"/>
        <feMergeNode in="SourceGraphic"/>
      </feMerge>
    </filter>

    <filter id="rim" x="-40%" y="-40%" width="180%" height="180%">
      <feDropShadow dx="0" dy="0" stdDeviation="4" flood-color="#24E8FF" flood-opacity="0.55"/>
    </filter>
  </defs>

  <rect width="256" height="256" rx="56" fill="url(#bg)"/>

  <!-- blue flames -->
  <g filter="url(#glow)" opacity="0.95">
    <path d="M128 16
      C98 36, 102 62, 118 78
      C90 92, 74 122, 84 152
      C66 166, 66 190, 86 206
      C98 232, 116 244, 128 246
      C140 244, 158 232, 170 206
      C190 190, 190 166, 172 152
      C182 122, 166 92, 138 78
      C154 62, 158 36, 128 16Z"
      fill="url(#flame)"/>
  </g>

  <!-- badge shield -->
  <g filter="url(#shadow)">
    <path d="M128 52
      C158 52, 188 68, 198 96
      C206 118, 202 154, 184 176
      C172 190, 160 204, 128 224
      C96 204, 84 190, 72 176
      C54 154, 50 118, 58 96
      C68 68, 98 52, 128 52Z"
      fill="#0A0F18" opacity="0.96" stroke="#0B1420" stroke-opacity="0.75" stroke-width="3"/>
    <path d="M128 62
      C154 62, 178 76, 186 98
      C192 116, 190 146, 176 164
      C166 176, 156 188, 128 206
      C100 188, 90 176, 80 164
      C66 146, 64 116, 70 98
      C78 76, 102 62, 128 62Z"
      fill="none" stroke="#1BE7FF" stroke-opacity="0.28" stroke-width="4" filter="url(#rim)"/>
  </g>

  <!-- wings -->
  <g filter="url(#shadow)">
    <path d="M54 138
      C70 124, 88 120, 102 124
      C92 136, 84 144, 74 150
      C68 154, 62 160, 54 168
      C50 156, 48 146, 54 138Z"
      fill="url(#gold)" opacity="0.92"/>
    <path d="M202 138
      C186 124, 168 120, 154 124
      C164 136, 172 144, 182 150
      C188 154, 194 160, 202 168
      C206 156, 208 146, 202 138Z"
      fill="url(#gold)" opacity="0.92"/>
  </g>

  <!-- skull -->
  <g filter="url(#shadow)">
    <path d="M128 86
      C152 86, 166 102, 166 124
      C166 142, 156 152, 148 160
      C146 162, 146 168, 146 172
      C146 188, 138 196, 128 196
      C118 196, 110 188, 110 172
      C110 168, 110 162, 108 160
      C100 152, 90 142, 90 124
      C90 102, 104 86, 128 86Z"
      fill="url(#ice)" stroke="#0B1420" stroke-opacity="0.65" stroke-width="3"/>
    <!-- eyes -->
    <path d="M106 126
      C110 114, 120 110, 128 110
      C136 110, 146 114, 150 126
      C150 134, 146 140, 138 140
      C132 140, 130 136, 128 134
      C126 136, 124 140, 118 140
      C110 140, 106 134, 106 126Z"
      fill="#06111C" opacity="0.98"/>
    <!-- nose -->
    <path d="M124 150
      C124 146, 126 142, 128 142
      C130 142, 132 146, 132 150
      C132 156, 130 160, 128 160
      C126 160, 124 156, 124 150Z"
      fill="#06111C" opacity="0.95"/>
    <!-- teeth -->
    <path d="M112 170
      C116 164, 122 162, 128 162
      C134 162, 140 164, 144 170
      C142 182, 136 188, 128 188
      C120 188, 114 182, 112 170Z"
      fill="#0A1420" opacity="0.92"/>
    <path d="M118 172H138" stroke="#EAF4FF" stroke-opacity="0.25" stroke-width="3" stroke-linecap="round"/>
    <path d="M122 172V186M128 172V188M134 172V186" stroke="#EAF4FF" stroke-opacity="0.22" stroke-width="2" stroke-linecap="round"/>
  </g>

  <!-- crown -->
  <g filter="url(#shadow)">
    <path d="M128 76
      L138 92 L160 96
      L146 110 L150 132
      L128 120 L106 132
      L110 110 L96 96
      L118 92 Z"
      fill="url(#gold)" opacity="0.95" stroke="#3A1C00" stroke-opacity="0.35" stroke-width="2"/>
    <path d="M106 100
      C112 92, 120 86, 128 82
      C136 86, 144 92, 150 100
      C144 104, 136 104, 128 100
      C120 104, 112 104, 106 100Z"
      fill="#0B1420" opacity="0.45"/>
  </g>

  <!-- aggressive cuts -->
  <g opacity="0.14">
    <path d="M40 210 C78 186, 98 188, 112 216 C86 228, 62 234, 40 210Z" fill="#FFFFFF"/>
    <path d="M216 210 C178 186, 158 188, 144 216 C170 228, 194 234, 216 210Z" fill="#FFFFFF"/>
  </g>
</svg>
